<?xml version="1.0" encoding="UTF-8" standalone="no"?>
<!-- Created using Karbon, part of Calligra: http://www.calligra.org/karbon -->

<svg
   xmlns:dc="http://purl.org/dc/elements/1.1/"
   xmlns:cc="http://creativecommons.org/ns#"
   xmlns:rdf="http://www.w3.org/1999/02/22-rdf-syntax-ns#"
   xmlns:svg="http://www.w3.org/2000/svg"
   xmlns="http://www.w3.org/2000/svg"
   xmlns:sodipodi="http://sodipodi.sourceforge.net/DTD/sodipodi-0.dtd"
   xmlns:inkscape="http://www.inkscape.org/namespaces/inkscape"
   width="38.4pt"
   height="38.4pt"
   id="svg2"
   version="1.1"
   inkscape:version="0.48.4 r9939"
   sodipodi:docname="system-shutdown.svg">
  <metadata
     id="metadata12">
    <rdf:RDF>
      <cc:Work
         rdf:about="">
        <dc:format>image/svg+xml</dc:format>
        <dc:type
           rdf:resource="http://purl.org/dc/dcmitype/StillImage" />
      </cc:Work>
    </rdf:RDF>
  </metadata>
  <sodipodi:namedview
     pagecolor="#ffffff"
     bordercolor="#666666"
     borderopacity="1"
     objecttolerance="10"
     gridtolerance="10"
     guidetolerance="10"
     inkscape:pageopacity="0"
     inkscape:pageshadow="2"
     inkscape:window-width="1440"
     inkscape:window-height="848"
     id="namedview10"
     showgrid="false"
     inkscape:zoom="4.9166667"
     inkscape:cx="-35.694915"
     inkscape:cy="24"
     inkscape:window-x="0"
     inkscape:window-y="27"
     inkscape:window-maximized="1"
     inkscape:current-layer="svg2" />
  <defs
     id="defs4" />
  <g
     id="layer0">
    <path
       id="path4064"
       transform="matrix(1 0 0 -1 3.99998 44)"
       fill="#ecf0f1"
       d="M39.9969 19.6471C39.8026 8.63759 30.7456 -0.143937 19.7353 0.00178772C8.72504 0.147512 -0.0963566 9.16567 0.000794807 20.1765C0.0979462 31.1873 9.0771 40.0484 20.0882 39.9998C31.0994 39.9513 40 31.0113 40 20" />
    <path
       id="circle3331"
       transform="matrix(1 0 0 -1 6.99998 41)"
       fill="#e74c3c"
       d="M33.9963 16.6459C33.8015 7.29368 26.0876 -0.144023 16.7344 0.00211718C7.38129 0.148258 -0.0964879 7.82333 0.000941343 17.1771C0.0983706 26.5309 7.73439 34.0485 17.0886 33.9998C26.4427 33.9511 34 26.3543 34 17"
       style="fill:#d6374d;fill-opacity:1" />
    <path
       id="path4096"
       transform="translate(12.5347, 12.297)"
       fill="#ecf0f1"
       d="M11.4653 0C5.11354 0 0 5.11354 0 11.4653C0 17.8171 5.11354 22.9307 11.4653 22.9307C17.8171 22.9307 22.9307 17.8171 22.9307 11.4653C22.9307 5.11354 17.8171 0 11.4653 0ZM11.4653 3.05743C16.1233 3.05743 19.8733 6.80736 19.8733 11.4653C19.8733 16.1233 16.1233 19.8733 11.4653 19.8733C6.80736 19.8733 3.05743 16.1233 3.05743 11.4653C3.05743 6.80736 6.80736 3.05743 11.4653 3.05743ZM9.93663 7.26139L9.93663 15.6693L12.9941 15.6693L12.9941 7.26139Z" />
  </g>
  <rect
     style="fill:#e6e6e6;fill-opacity:1;stroke:none"
     id="rect3757"
     width="4.2711864"
     height="20.949152"
     x="21.864407"
     y="18.508474"
     ry="3.1667323" />
</svg>
